___________________________________________________________________________________


Description:
-----------

General
Format : MPEG-PS
File size : 683 MiB
Duration : 51mn 0s
Overall bit rate : 1 872 Kbps

Video
ID : 224 (0xE0)
Format : MPEG Video
Format version : Version 2
Format profile : Main@Main
Format settings, BVOP : Yes
Format settings, Matrix : Default
Format settings, GOP : M=3, N=12
Duration : 51mn 0s
Bit rate mode : Variable
Bit rate : 1 707 Kbps
Nominal bit rate : 2 519 Mbps
Width : 720 pixels
Height : 576 pixels
Display aspect ratio : 4:3
Frame rate : 25.000 fps
Standard : PAL
Color space : YUV
Chroma subsampling : 4:2:0
Bit depth : 8 bits
Scan type : Progressive
Bits/(Pixel*Frame) : 0.165
Stream size : 623 MiB (91%)

Audio
ID : 192 (0xC0)
Format : MPEG Audio
Format version : Version 1
Format profile : Layer 2
Duration : 51mn 0s
Bit rate mode : Constant
Bit rate : 128 Kbps
Channel(s) : 2 channels
Sampling rate : 48.0 KHz
Stream size : 46.7 MiB (7%)


Poster:
------
 
http://media.movietalkies.com/posters/bollywood/movies/2010/knockout/knockout-2010-1b.jpg


Screenshots:
-----------
 
http://img218.imageshack.us/img218/7817/vlcsnap2010101516h35m42.png
 
http://img242.imageshack.us/img242/8563/vlcsnap2010101516h35m48.png
 
http://img816.imageshack.us/img816/9611/vlcsnap2010101517h19m58.png

___________________________________________________________________________________


UL by =ThE.CounT=
